<svg width="177" height="177" viewBox="0 0 177 177" fill="none" xmlns="http://www.w3.org/2000/svg">
<path fill-rule="evenodd" clip-rule="evenodd" d="M55.3125 35.0312C55.3125 33.4198 71.9653 22.125 88.5 22.125C105.035 22.125 121.688 33.4198 121.688 35.0312C121.688 40.7837 121.075 44.191 120.559 46.0458C120.216 47.2627 119.077 47.9375 117.812 47.9375H59.1881C57.9233 47.9375 56.7839 47.2627 56.4409 46.0458C55.9247 44.191 55.3125 40.7837 55.3125 35.0312ZM59.1402 70.8664C46.8608 67.0682 49.9583 60.2832 54.6414 55.3125H123.384C127.13 60.0989 129.14 66.5557 117.816 70.4202C117.939 71.5141 118 72.6241 118 73.75C117.998 77.7445 117.186 81.6972 115.611 85.3682C114.036 89.0392 111.732 92.3522 108.839 95.1062C105.945 97.8602 102.523 99.9979 98.7784 101.39C95.0342 102.782 91.0463 103.398 87.0565 103.203C83.0668 103.007 79.1583 102.004 75.568 100.253C71.9777 98.5015 68.7805 96.0395 66.1701 93.0158C63.5598 89.9922 61.5907 86.4699 60.3823 82.6625C59.1739 78.8551 58.7513 74.8419 59.1402 70.8664ZM87.497 73.75C97.2394 73.75 104.791 73.2337 110.581 72.334C110.61 72.8011 110.625 73.2731 110.625 73.75C110.622 76.7027 110.029 79.6251 108.879 82.3448C107.729 85.0646 106.047 87.5267 103.931 89.5861C101.815 91.6454 99.3081 93.2604 96.5581 94.3358C93.8082 95.4112 90.8708 95.9253 87.9191 95.8478C84.9674 95.7702 82.061 95.1027 79.3713 93.8844C76.6816 92.6661 74.263 90.9217 72.258 88.7541C70.253 86.5865 68.7021 84.0394 67.6968 81.2631C66.6915 78.4867 66.2521 75.5372 66.4045 72.5884C71.7994 73.3333 78.7134 73.75 87.497 73.75ZM119.538 127.587C116.203 122.383 111.612 118.102 106.188 115.137C100.764 112.173 94.6812 110.621 88.5 110.625C82.3163 110.62 76.2309 112.172 70.8048 115.138C65.3787 118.104 60.7864 122.388 57.4513 127.595C56.2108 125.691 54.3105 124.312 52.1155 123.723L44.9912 121.817C42.6299 121.184 40.1138 121.514 37.9963 122.736C35.8789 123.958 34.3335 125.971 33.7001 128.332L30.8386 139.019C30.5252 140.188 30.4453 141.408 30.6033 142.608C30.7613 143.809 31.1543 144.966 31.7597 146.015C32.3651 147.063 33.1711 147.982 34.1317 148.719C35.0923 149.456 36.1886 149.997 37.3581 150.31L44.4787 152.22C45.6766 152.541 46.9269 152.617 48.1548 152.443C49.3828 152.27 50.5631 151.85 51.625 151.21C51.628 152.188 52.0193 153.124 52.7129 153.814C53.4065 154.503 54.3456 154.889 55.3236 154.886C56.3016 154.883 57.2384 154.492 57.9278 153.798C58.6173 153.105 59.003 152.165 59 151.187V147.5C59 146.094 59.0959 144.713 59.2877 143.359L78.4774 148.503C79.3682 150.41 80.7843 152.023 82.5596 153.153C84.3348 154.283 86.3956 154.883 88.5 154.883C90.6045 154.883 92.6652 154.283 94.4405 153.153C96.2158 152.023 97.6319 150.41 98.5227 148.503L117.712 143.359C117.902 144.713 117.998 146.094 118 147.5V151.187C117.995 152.165 118.379 153.105 119.067 153.8C119.755 154.495 120.691 154.889 121.669 154.893C122.647 154.898 123.587 154.514 124.282 153.826C124.977 153.138 125.37 152.202 125.375 151.224C127.44 152.463 129.992 152.895 132.503 152.22L139.627 150.314C140.797 150 141.893 149.46 142.854 148.723C143.814 147.986 144.62 147.067 145.226 146.018C145.831 144.97 146.224 143.812 146.382 142.612C146.54 141.412 146.46 140.192 146.147 139.022L143.282 128.336C142.648 125.975 141.103 123.962 138.985 122.74C136.868 121.518 134.352 121.187 131.99 121.82L124.866 123.727C122.676 124.313 120.779 125.69 119.538 127.587ZM61.2236 136.238C63.2167 131.422 66.4489 127.219 70.5919 124.056C74.7349 120.893 79.6412 118.882 84.8125 118.229V133.381C83.1589 133.965 81.668 134.934 80.4626 136.208C79.2572 137.482 78.372 139.024 77.88 140.708L61.2236 136.238ZM115.776 136.238C113.783 131.422 110.551 127.219 106.408 124.056C102.265 120.893 97.3589 118.882 92.1875 118.229V133.381C95.521 134.561 98.1244 137.289 99.12 140.708L115.776 136.238ZM88.5 147.5C89.478 147.5 90.416 147.111 91.1075 146.42C91.799 145.728 92.1875 144.79 92.1875 143.812C92.1875 142.835 91.799 141.897 91.1075 141.205C90.416 140.513 89.478 140.125 88.5 140.125C87.5221 140.125 86.5841 140.513 85.8926 141.205C85.201 141.897 84.8125 142.835 84.8125 143.812C84.8125 144.79 85.201 145.728 85.8926 146.42C86.5841 147.111 87.5221 147.5 88.5 147.5Z" fill="#F3C200"/>
</svg>
